<?xml version="1.0" standalone="no"?>
<!DOCTYPE svg PUBLIC "-//W3C//DTD SVG 20010904//EN"
 "http://www.w3.org/TR/2001/REC-SVG-20010904/DTD/svg10.dtd">
<svg version="1.0" xmlns="http://www.w3.org/2000/svg"
 width="500.000000pt" height="500.000000pt" viewBox="0 0 500.000000 500.000000"
 preserveAspectRatio="xMidYMid meet">
<metadata>
Created by potrace 1.14, written by Peter Selinger 2001-2017
</metadata>
<g transform="translate(0.000000,500.000000) scale(0.100000,-0.100000)"
fill="#000000" stroke="none">
<path d="M2329 4896 c-2 -2 -42 -6 -87 -10 -46 -3 -87 -8 -90 -10 -4 -2 -29
-7 -57 -10 -48 -5 -72 -9 -122 -21 -13 -3 -32 -7 -44 -10 -11 -2 -29 -7 -39
-10 -10 -3 -28 -8 -40 -10 -42 -8 -216 -67 -300 -102 -378 -156 -712 -436
-880 -741 l-42 -77 -61 0 c-107 -1 -206 -74 -248 -184 -20 -53 -20 -172 -1
-208 9 -17 9 -30 -3 -63 -19 -53 -19 -113 -1 -173 12 -39 12 -53 1 -84 -18
-52 -12 -159 12 -214 24 -54 85 -116 137 -140 l40 -17 0 -109 c2 -184 46 -283
198 -444 24 -25 56 -69 72 -98 26 -49 29 -64 31 -165 2 -61 5 -120 8 -131 21
-85 33 -117 62 -175 19 -36 43 -78 54 -95 12 -16 28 -52 37 -80 50 -158 151
-365 228 -469 81 -109 163 -184 290 -266 240 -154 268 -182 281 -285 12 -93
81 -173 204 -235 106 -53 111 -54 511 -57 414 -3 424 -2 553 60 78 37 155 103
180 153 9 17 19 53 22 80 14 101 46 137 215 239 178 108 285 205 375 339 85
128 187 346 211 451 4 17 19 48 34 70 48 71 108 204 98 217 -1 2 5 14 12 28 8
16 14 70 16 151 l3 127 37 58 c21 33 68 92 105 131 112 121 166 267 156 419
l-6 82 40 17 c53 24 111 84 139 142 28 58 36 169 15 219 -11 28 -11 40 1 80
18 59 18 95 0 163 -12 45 -12 59 -1 86 19 45 13 160 -12 215 -45 100 -138 164
-240 164 -60 1 -62 2 -79 36 -87 170 -259 373 -430 506 -286 225 -704 396
-1069 439 -32 4 -68 9 -80 12 -25 6 -440 15 -446 9z m-464 -921 c95 -32 178
-86 260 -169 172 -174 203 -241 151 -331 -28 -47 -54 -63 -115 -72 -63 -9
-102 19 -176 128 -183 270 -357 327 -638 209 -74 -31 -97 -28 -97 12 0 78 163
200 312 232 83 18 238 14 303 -9z m1555 13 c8 -3 31 -8 50 -12 50 -11 161 -71
209 -113 44 -38 71 -80 71 -112 0 -38 -27 -39 -113 -5 -222 90 -379 64 -521
-86 -34 -37 -84 -101 -111 -144 -69 -112 -130 -138 -222 -97 -71 33 -103 124
-67 193 22 43 123 165 178 216 88 82 200 141 311 165 23 5 192 1 215 -5z
m-2748 -326 c245 -128 265 -156 193 -261 -19 -28 -35 -54 -35 -59 0 -5 9 -17
21 -28 26 -24 49 -67 49 -93 0 -44 -24 -69 -109 -117 -209 -118 -244 -125
-276 -57 -22 45 -14 84 25 131 16 20 30 41 30 45 0 5 -13 25 -30 43 -16 19
-33 46 -36 59 -9 36 2 70 36 109 17 18 30 38 30 43 0 4 -14 25 -31 46 -44 54
-49 104 -14 145 35 42 57 41 147 -6z m3774 32 c11 -3 29 -19 38 -36 24 -40 16
-88 -23 -135 -17 -21 -31 -42 -31 -46 0 -5 13 -25 30 -43 52 -60 52 -108 0
-168 -17 -18 -30 -38 -30 -43 0 -4 14 -25 31 -46 18 -22 33 -54 36 -76 4 -32
1 -43 -25 -72 -29 -33 -30 -33 -73 -20 -24 7 -62 23 -84 36 -22 12 -74 41
-117 65 -76 43 -98 68 -98 114 0 24 40 92 66 113 13 9 11 16 -14 45 -36 41
-52 71 -52 97 0 48 23 69 149 139 157 87 157 87 197 76z m-2563 -432 c117 -58
205 -169 215 -272 4 -42 1 -49 -23 -68 -31 -25 -67 -27 -146 -11 -152 31 -195
33 -294 14 -138 -26 -154 -28 -185 -15 -75 31 -63 195 21 279 106 108 279 138
412 73z m1447 28 c118 -22 227 -100 251 -179 19 -64 22 -125 6 -163 -14 -32
-21 -37 -59 -42 -27 -4 -77 1 -133 13 -87 19 -197 22 -255 7 -113 -29 -183
-31 -220 -6 -26 17 -19 117 12 171 52 88 147 165 241 194 52 17 89 18 157 5z
m-1951 -839 c-72 -64 -112 -137 -111 -205 0 -135 70 -254 182 -311 59 -30 123
-37 168 -18 21 8 106 83 196 172 154 151 203 190 255 206 18 6 31 0 60 -28 45
-43 66 -54 130 -68 28 -6 57 -19 64 -29 7 -10 30 -29 52 -41 34 -20 53 -24
125 -23 94 1 135 15 181 65 17 18 37 29 53 29 41 0 97 27 138 67 33 33 39 35
67 25 54 -19 113 -67 241 -197 155 -158 198 -189 260 -189 54 0 141 38 187 82
45 44 80 108 96 177 30 130 -3 208 -133 316 l-25 20 40 -6 c167 -26 347 -215
384 -405 53 -268 -122 -530 -419 -628 -172 -57 -139 -55 -1030 -58 -905 -3
-929 -2 -1100 56 -123 42 -195 84 -277 165 -93 92 -141 187 -156 311 -13 105
0 180 48 279 64 131 159 221 277 262 100 35 110 30 47 -26z"/>
</g>
</svg>
